<mxfile host="app.diagrams.net" modified="2023-03-16T19:05:01.972Z" agent="5.0 (Windows NT 10.0; Win64; x64) AppleWebKit/537.36 (KHTML, like Gecko) Chrome/111.0.0.0 Safari/537.36" etag="zlRuJbPqXuSlEzqFRkvY" version="21.0.6" type="github">
  <diagram name="Sayfa -1" id="dFD1YRZlwAUyUcAjZm8z">
    <mxGraphModel dx="700" dy="361" grid="1" gridSize="10" guides="1" tooltips="1" connect="1" arrows="1" fold="1" page="1" pageScale="1" pageWidth="827" pageHeight="1169" math="0" shadow="0">
      <root>
        <mxCell id="0" />
        <mxCell id="1" parent="0" />
        <mxCell id="gfVUpPzcq7ltvzQVfOQL-5" style="rounded=0;orthogonalLoop=1;jettySize=auto;html=1;entryX=0.5;entryY=0;entryDx=0;entryDy=0;" edge="1" parent="1" source="gfVUpPzcq7ltvzQVfOQL-1" target="gfVUpPzcq7ltvzQVfOQL-2">
          <mxGeometry relative="1" as="geometry" />
        </mxCell>
        <mxCell id="gfVUpPzcq7ltvzQVfOQL-1" value="BAŞLA" style="rounded=1;whiteSpace=wrap;html=1;" vertex="1" parent="1">
          <mxGeometry x="160" y="60" width="160" height="70" as="geometry" />
        </mxCell>
        <mxCell id="gfVUpPzcq7ltvzQVfOQL-6" style="edgeStyle=orthogonalEdgeStyle;rounded=0;orthogonalLoop=1;jettySize=auto;html=1;exitX=0.5;exitY=1;exitDx=0;exitDy=0;entryX=0.5;entryY=0;entryDx=0;entryDy=0;" edge="1" parent="1" source="gfVUpPzcq7ltvzQVfOQL-2" target="gfVUpPzcq7ltvzQVfOQL-3">
          <mxGeometry relative="1" as="geometry" />
        </mxCell>
        <mxCell id="gfVUpPzcq7ltvzQVfOQL-2" value="SAYI = 1&lt;br&gt;TOPLAM = 0" style="rounded=0;whiteSpace=wrap;html=1;" vertex="1" parent="1">
          <mxGeometry x="170" y="190" width="140" height="70" as="geometry" />
        </mxCell>
        <mxCell id="gfVUpPzcq7ltvzQVfOQL-9" style="edgeStyle=orthogonalEdgeStyle;rounded=0;orthogonalLoop=1;jettySize=auto;html=1;exitX=1;exitY=0.5;exitDx=0;exitDy=0;entryX=0;entryY=0.5;entryDx=0;entryDy=0;" edge="1" parent="1" source="gfVUpPzcq7ltvzQVfOQL-3" target="gfVUpPzcq7ltvzQVfOQL-8">
          <mxGeometry relative="1" as="geometry" />
        </mxCell>
        <mxCell id="gfVUpPzcq7ltvzQVfOQL-22" style="edgeStyle=orthogonalEdgeStyle;rounded=0;orthogonalLoop=1;jettySize=auto;html=1;exitX=0.5;exitY=1;exitDx=0;exitDy=0;entryX=0.5;entryY=0;entryDx=0;entryDy=0;" edge="1" parent="1" source="gfVUpPzcq7ltvzQVfOQL-3" target="gfVUpPzcq7ltvzQVfOQL-21">
          <mxGeometry relative="1" as="geometry" />
        </mxCell>
        <mxCell id="gfVUpPzcq7ltvzQVfOQL-3" value="SAYI &amp;lt; 1000" style="rhombus;whiteSpace=wrap;html=1;" vertex="1" parent="1">
          <mxGeometry x="185" y="300" width="110" height="100" as="geometry" />
        </mxCell>
        <mxCell id="gfVUpPzcq7ltvzQVfOQL-11" style="edgeStyle=orthogonalEdgeStyle;rounded=0;orthogonalLoop=1;jettySize=auto;html=1;exitX=0.5;exitY=1;exitDx=0;exitDy=0;entryX=0;entryY=0.5;entryDx=0;entryDy=0;" edge="1" parent="1" source="gfVUpPzcq7ltvzQVfOQL-8" target="gfVUpPzcq7ltvzQVfOQL-10">
          <mxGeometry relative="1" as="geometry" />
        </mxCell>
        <mxCell id="gfVUpPzcq7ltvzQVfOQL-16" style="edgeStyle=orthogonalEdgeStyle;rounded=0;orthogonalLoop=1;jettySize=auto;html=1;exitX=1;exitY=0.5;exitDx=0;exitDy=0;entryX=0;entryY=0.75;entryDx=0;entryDy=0;" edge="1" parent="1" source="gfVUpPzcq7ltvzQVfOQL-8" target="gfVUpPzcq7ltvzQVfOQL-14">
          <mxGeometry relative="1" as="geometry" />
        </mxCell>
        <mxCell id="gfVUpPzcq7ltvzQVfOQL-8" value="SAYI%3 == 0" style="rhombus;whiteSpace=wrap;html=1;" vertex="1" parent="1">
          <mxGeometry x="340" y="300" width="110" height="100" as="geometry" />
        </mxCell>
        <mxCell id="gfVUpPzcq7ltvzQVfOQL-26" style="edgeStyle=orthogonalEdgeStyle;rounded=0;orthogonalLoop=1;jettySize=auto;html=1;exitX=0.5;exitY=0;exitDx=0;exitDy=0;entryX=0.5;entryY=1;entryDx=0;entryDy=0;" edge="1" parent="1" source="gfVUpPzcq7ltvzQVfOQL-10" target="gfVUpPzcq7ltvzQVfOQL-14">
          <mxGeometry relative="1" as="geometry" />
        </mxCell>
        <mxCell id="gfVUpPzcq7ltvzQVfOQL-10" value="TOPLAM+=SAYI" style="rounded=0;whiteSpace=wrap;html=1;" vertex="1" parent="1">
          <mxGeometry x="500" y="410" width="120" height="60" as="geometry" />
        </mxCell>
        <mxCell id="gfVUpPzcq7ltvzQVfOQL-13" value="EVET" style="text;html=1;strokeColor=none;fillColor=none;align=center;verticalAlign=middle;whiteSpace=wrap;rounded=0;" vertex="1" parent="1">
          <mxGeometry x="410" y="440" width="60" height="30" as="geometry" />
        </mxCell>
        <mxCell id="gfVUpPzcq7ltvzQVfOQL-20" style="edgeStyle=orthogonalEdgeStyle;rounded=0;orthogonalLoop=1;jettySize=auto;html=1;exitX=0.5;exitY=0;exitDx=0;exitDy=0;entryX=0.5;entryY=0;entryDx=0;entryDy=0;" edge="1" parent="1" source="gfVUpPzcq7ltvzQVfOQL-14" target="gfVUpPzcq7ltvzQVfOQL-3">
          <mxGeometry relative="1" as="geometry" />
        </mxCell>
        <mxCell id="gfVUpPzcq7ltvzQVfOQL-14" value="SAYI = SAYI +1" style="rounded=0;whiteSpace=wrap;html=1;" vertex="1" parent="1">
          <mxGeometry x="500" y="310" width="120" height="60" as="geometry" />
        </mxCell>
        <mxCell id="gfVUpPzcq7ltvzQVfOQL-15" value="EVET" style="text;html=1;strokeColor=none;fillColor=none;align=center;verticalAlign=middle;whiteSpace=wrap;rounded=0;" vertex="1" parent="1">
          <mxGeometry x="290" y="360" width="60" height="30" as="geometry" />
        </mxCell>
        <mxCell id="gfVUpPzcq7ltvzQVfOQL-17" value="HAYIR" style="text;html=1;strokeColor=none;fillColor=none;align=center;verticalAlign=middle;whiteSpace=wrap;rounded=0;" vertex="1" parent="1">
          <mxGeometry x="440" y="320" width="60" height="30" as="geometry" />
        </mxCell>
        <mxCell id="gfVUpPzcq7ltvzQVfOQL-25" style="edgeStyle=orthogonalEdgeStyle;rounded=0;orthogonalLoop=1;jettySize=auto;html=1;exitX=0;exitY=0.75;exitDx=0;exitDy=0;entryX=0.5;entryY=0;entryDx=0;entryDy=0;" edge="1" parent="1" source="gfVUpPzcq7ltvzQVfOQL-21" target="gfVUpPzcq7ltvzQVfOQL-24">
          <mxGeometry relative="1" as="geometry">
            <Array as="points">
              <mxPoint x="240" y="520" />
            </Array>
          </mxGeometry>
        </mxCell>
        <mxCell id="gfVUpPzcq7ltvzQVfOQL-21" value="TOPLAM" style="shape=document;whiteSpace=wrap;html=1;boundedLbl=1;" vertex="1" parent="1">
          <mxGeometry x="180" y="460" width="120" height="80" as="geometry" />
        </mxCell>
        <mxCell id="gfVUpPzcq7ltvzQVfOQL-23" value="HAYIR" style="text;html=1;strokeColor=none;fillColor=none;align=center;verticalAlign=middle;whiteSpace=wrap;rounded=0;" vertex="1" parent="1">
          <mxGeometry x="240" y="410" width="60" height="30" as="geometry" />
        </mxCell>
        <mxCell id="gfVUpPzcq7ltvzQVfOQL-24" value="BİTİR" style="rounded=1;whiteSpace=wrap;html=1;" vertex="1" parent="1">
          <mxGeometry x="180" y="600" width="120" height="60" as="geometry" />
        </mxCell>
      </root>
    </mxGraphModel>
  </diagram>
</mxfile>
